<svg height="384pt" viewBox="0 0 384 384" width="384pt" xmlns="http://www.w3.org/2000/svg"><path d="m368 176h-64v-8c0-8.832031-7.167969-16-16-16s-16 7.167969-16 16v8h-64v-64h8c8.832031 0 16-7.167969 16-16s-7.167969-16-16-16h-8v-64c0-8.832031-7.167969-16-16-16s-16 7.167969-16 16v64h-8c-8.832031 0-16 7.167969-16 16s7.167969 16 16 16h8v64h-64v-8c0-8.832031-7.167969-16-16-16s-16 7.167969-16 16v8h-64c-8.832031 0-16 7.167969-16 16s7.167969 16 16 16h64v8c0 8.832031 7.167969 16 16 16s16-7.167969 16-16v-8h64v64h-8c-8.832031 0-16 7.167969-16 16s7.167969 16 16 16h8v64c0 8.832031 7.167969 16 16 16s16-7.167969 16-16v-64h8c8.832031 0 16-7.167969 16-16s-7.167969-16-16-16h-8v-64h64v8c0 8.832031 7.167969 16 16 16s16-7.167969 16-16v-8h64c8.832031 0 16-7.167969 16-16s-7.167969-16-16-16zm0 0"/><path d="m379.3125 260.6875c-6.25-6.246094-16.375-6.246094-22.625 0l-8.6875 8.6875-8.6875-8.6875c-6.25-6.246094-16.375-6.246094-22.625 0-6.246094 6.25-6.246094 16.375 0 22.625l8.6875 8.6875-8.6875 8.6875c-6.246094 6.25-6.246094 16.375 0 22.625 3.128906 3.128906 7.214844 4.6875 11.3125 4.6875s8.183594-1.558594 11.3125-4.6875l8.6875-8.6875 8.6875 8.6875c3.128906 3.128906 7.214844 4.6875 11.3125 4.6875s8.183594-1.558594 11.3125-4.6875c6.246094-6.25 6.246094-16.375 0-22.625l-8.6875-8.6875 8.6875-8.6875c6.246094-6.25 6.246094-16.375 0-22.625zm0 0"/><path d="m296 88c8.832031 0 16-7.167969 16-16v-18.664062l20.800781-27.726563c5.304688-7.074219 3.871094-17.105469-3.191406-22.402344-7.089844-5.296875-17.105469-3.855469-22.402344 3.199219l-11.207031 14.929688-11.199219-14.9375c-5.289062-7.054688-15.296875-8.496094-22.402343-3.199219-7.070313 5.304687-8.503907 15.335937-3.191407 22.402343l20.800781 27.726563v18.671875c-.007812 8.832031 7.160157 16 15.992188 16zm0 0"/></svg>