<svg height="512pt" viewBox="0 0 512 512" width="512pt" xmlns="http://www.w3.org/2000/svg"><path d="m145.96875 423.246094h-36.707031l84.6875-84.375-21.171875-21.253906-84.476563 84.164062v-36.203125h-30v87.667969h87.667969zm0 0"/><path d="m366.03125 423.246094v30h87.667969v-87.667969h-30v36.203125l-84.476563-84.164062-21.171875 21.253906 84.6875 84.375zm0 0"/><path d="m88.300781 110.21875 84.476563 84.164062 21.171875-21.253906-84.6875-84.375h36.707031v-30h-87.667969v87.667969h30zm0 0"/><path d="m339.222656 194.382812 84.476563-84.164062v36.203125h30v-87.667969h-87.667969v30h36.707031l-84.6875 84.375zm0 0"/><path d="m0 0v512h512v-512zm482 482h-452v-452h452zm0 0"/></svg>