<?xml version="1.0" encoding="utf-8"?>
<!-- Generator: Adobe Illustrator 26.2.1, SVG Export Plug-In . SVG Version: 6.00 Build 0)  -->
<svg version="1.1" id="Layer_1" xmlns="http://www.w3.org/2000/svg" xmlns:xlink="http://www.w3.org/1999/xlink" x="0px" y="0px"
	 viewBox="0 0 200 200" style="enable-background:new 0 0 200 200;" xml:space="preserve">
<style type="text/css">
	.st0{stroke:#000000;stroke-width:7;stroke-linecap:round;stroke-linejoin:round;}
</style>
<path d="M0,0c-1.2,63.1,0,200,0,200V0z M67.2,28.7c-2.9,0-6.2,0.3-7.6,0.6c-8.2,2.2-17.8,10.3-22.2,18.8c-2.5,4.8-5.4,12.8-6.5,18.1
	c-0.5,2.5-0.6,3.5-0.6,6.8c0,3.3,0.1,4.3,0.5,6c1.6,6.3,5.2,11.8,11.7,17.8c1.2,1.1,4.3,3.8,7,6c9.5,8,12.7,11.8,17.2,21
	c2.6,5.2,4.4,9.9,7.2,18c1.1,3.3,2.5,7,3.1,8.2c5.2,11,15.5,20.7,24.6,23.4c1.7,0.5,5.4,1.1,8.5,1.4c0.5,0.1,3.8,0.1,7.3,0
	c4.8-0.1,7.3-0.2,9.9-0.6c10.7-1.4,19.4-4.4,26-8.9c5.4-3.7,10.9-8.3,13.8-11.4c7.5-8.5,9.7-17.7,8-33.7c-1-9.7-3.4-16-7.5-20
	c-1.7-1.6-2.2-2-3.8-2.9c-4.2-2.3-9.9-2.8-21.4-2c-11.8,0.8-18.1,0.2-26.2-2.4C104.5,89.1,97.1,82,94.9,72.5
	c-0.3-1.1-0.8-4.5-1.2-7.6c-2.4-19.1-4.2-25.6-8.2-29.5c-3.4-3.3-8.4-5.7-13.8-6.5C70.6,28.7,69,28.6,67.2,28.7z"/>
<line class="st0" x1="3.8" y1="181.3" x2="194.3" y2="181.3"/>
<line class="st0" x1="18" y1="196.2" x2="18" y2="6.1"/>
<line class="st0" x1="53.3" y1="189.4" x2="53.3" y2="182"/>
<line class="st0" x1="88.5" y1="189.4" x2="88.5" y2="181.9"/>
<line class="st0" x1="159" y1="189.4" x2="159" y2="181.9"/>
<line class="st0" x1="123.8" y1="188.4" x2="123.8" y2="181.5"/>
<line class="st0" x1="194.3" y1="188.4" x2="194.3" y2="182"/>
<line class="st0" x1="17.7" y1="146.2" x2="10.2" y2="146.2"/>
<line class="st0" x1="17.7" y1="111.2" x2="10.1" y2="111.2"/>
<line class="st0" x1="17.7" y1="41.1" x2="10.1" y2="41.1"/>
<line class="st0" x1="17.7" y1="76.2" x2="10.8" y2="76.2"/>
<line class="st0" x1="17.7" y1="6.1" x2="11.2" y2="6.1"/>
</svg>
