<svg xmlns="http://www.w3.org/2000/svg" xmlns:xlink="http://www.w3.org/1999/xlink" id="Capa_1" x="0" y="0" version="1.1" viewBox="0 0 333 333" xml:space="preserve" style="enable-background:new 0 0 333 333"><g><g><path d="M31.5,10v313c0,5.5,4.5,10,10,10s10-4.5,10-10V10c0-5.5-4.5-10-10-10C36,0,31.5,4.5,31.5,10z"/></g></g><g><g><path d="M114.5,103v220c0,5.5,4.5,10,10,10s10-4.5,10-10V103c0-5.5-4.5-10-10-10S114.5,97.5,114.5,103z"/></g></g><g><g><path d="M198.5,10v313c0,5.5,4.5,10,10,10s10-4.5,10-10V10c0-5.5-4.5-10-10-10C203,0,198.5,4.5,198.5,10z"/></g></g><g><g><path d="M281.5,182v141c0,5.5,4.5,10,10,10s10-4.5,10-10V182c0-5.5-4.5-10-10-10S281.5,176.5,281.5,182z"/></g></g></svg>