<svg xmlns="http://www.w3.org/2000/svg" xmlns:xlink="http://www.w3.org/1999/xlink" id="Capa_1" x="0" y="0" version="1.1" viewBox="0 0 512 512" xml:space="preserve" style="enable-background:new 0 0 512 512"><path d="M288,426.681c-4.693,0-8.853-3.093-10.219-7.595l-56.277-187.563l-51.968,103.957c-1.707,3.392-5.077,5.653-8.875,5.867	c-3.989,0.32-7.424-1.557-9.536-4.736l-39.509-59.264H10.667C4.779,277.348,0,272.569,0,266.681s4.779-10.667,10.667-10.667h106.667	c3.563,0,6.891,1.771,8.875,4.757l32.469,48.704l55.787-111.552c1.941-3.904,6.016-6.421,10.453-5.845	c4.352,0.384,8.043,3.371,9.301,7.552l51.712,172.373l55.616-278.08c1.024-5.141,5.653-8.981,10.901-8.576	c5.248,0.235,9.557,4.245,10.155,9.472l19.648,176.789l28.971-14.485c1.493-0.725,3.136-1.109,4.779-1.109h85.333	c5.888,0,10.667,4.779,10.667,10.667s-4.779,10.667-10.667,10.667h-82.816l-40.427,20.203c-3.115,1.557-6.763,1.472-9.877-0.171	c-3.072-1.664-5.099-4.736-5.504-8.192l-13.76-123.733l-50.496,252.651c-0.96,4.821-5.056,8.341-9.963,8.555	C288.341,426.681,288.171,426.681,288,426.681z"/></svg>