<svg xmlns="http://www.w3.org/2000/svg" xmlns:xlink="http://www.w3.org/1999/xlink" id="Capa_1" x="0" y="0" version="1.1" viewBox="0 0 512 512" xml:space="preserve" style="enable-background:new 0 0 512 512"><g><g><path d="M230.5,181c-41.355,0-75,33.645-75,75s33.645,75,75,75s75-33.645,75-75C305.5,214.645,271.855,181,230.5,181z"/></g></g><g><g><path d="M375.5,0c-33.084,0-60,26.916-60,60s26.916,60,60,60s60-26.916,60-60S408.584,0,375.5,0z"/></g></g><g><g><path d="M105.5,0c-44.112,0-80,35.888-80,80s35.888,80,80,80s80-35.888,80-80S149.612,0,105.5,0z"/></g></g><g><g><path d="M406.5,301c-44.112,0-80,35.888-80,80s35.888,80,80,80s80-35.888,80-80S450.612,301,406.5,301z"/></g></g><g><g><path d="M85.5,392c-33.084,0-60,26.916-60,60s26.916,60,60,60s60-26.916,60-60S118.584,392,85.5,392z"/></g></g></svg>